# xmcd
#
# Track frame offsets:
#  150
#  16148
#  32876
#  54568
#  76251
#  95137
#  117702
#  130092
#  148055
#  165734
#  195092
#  217738
#  234484
#  252672
#  273860
#  288894
#  320999
#
# Disc length: 4572 seconds
#
# Revision: 0
# Processed by: cddbd v1.5.1PL2 Copyright (c) Steve Scherf et al.
# Submitted via: Collectorz.com_Music_Collector 6.10
#
DISCID=f511da11
DTITLE=The Sound - Dutch Radio Recordings: 5.  09.04.85 Utrecht, Vrije Vloer
DYEAR=2006
DGENRE=New Wave - Rock
TTITLE0=Golden Soldiers
TTITLE1=Counting The Days
TTITLE2=Under You
TTITLE3=Total Recall
TTITLE4=Where The Love Is
TTITLE5=Love Is Not A Ghost
TTITLE6=World As It Is
TTITLE7=Winning
TTITLE8=Restless Time
TTITLE9=Silent Air
TTITLE10=Wildest Dreams
TTITLE11=Burning Part Of Me
TTITLE12=Whirlpool
TTITLE13=Sense Of Purpose
TTITLE14=Fire
TTITLE15=Missiles
TTITLE16=Party Of The Mind
EXTD=
EXTT0=
EXTT1=
EXTT2=
EXTT3=
EXTT4=
EXTT5=
EXTT6=
EXTT7=
EXTT8=
EXTT9=
EXTT10=
EXTT11=
EXTT12=
EXTT13=
EXTT14=
EXTT15=
EXTT16=
PLAYORDER=
